<?xml version="1.0" encoding="UTF-8"?>
<svg xmlns="http://www.w3.org/2000/svg" version="1.1" xmlns:xlink="http://www.w3.org/1999/xlink" viewBox="0 0 92.5 65.8">
  <defs>
    <style>
      .cls-1 {
        fill: none;
      }

      .cls-2 {
        clip-path: url(#clippath-1);
      }

      .cls-3 {
        fill: #1b272e;
      }

      .cls-4 {
        clip-path: url(#clippath);
      }
    </style>
    <clipPath id="clippath">
      <rect class="cls-1" x="3.9" y="1.2" width="81.9" height="22.7"/>
    </clipPath>
    <clipPath id="clippath-1">
      <rect class="cls-1" x="7.2" y="42.6" width="78.9" height="21.7"/>
    </clipPath>
  </defs>
  <!-- Generator: Adobe Illustrator 28.7.3, SVG Export Plug-In . SVG Version: 1.2.0 Build 164)  -->
  <g>
    <g id="Layer_1">
      <g class="cls-4">
        <path class="cls-3" d="M80.6,18.2c-2-3.7-2.9-4.2-3.9-4.2s-1.9.5-3.9,4.2h0c-.7,1.5-2.7,1.4-3.3,0-.6-1.7-1.3-4-1.9-7-2-8.6-2.9-9.7-3.9-9.7s-1.9,1.1-3.9,9.7c-.8,4.2-1.8,7-2.6,8.8-.6,1.3-2.4,1.4-3.1.1h0c-1.6-2.5-2.3-2.8-3.2-2.8s-1.6.3-3.2,2.8c0,0,0,0,0,0-.5.9-1.8.9-2.4,0-.5-.8-.9-1.7-1.4-2.9-2-4.4-2.9-5-3.9-5s-1.9.6-3.9,5h0c-.9,2.4-4.3,2.4-5.2,0-.3-.8-.6-1.7-.9-2.8-2-6.3-2.9-7.1-3.9-7.1s-1.9.8-3.9,7.1c-.5,1.9-1.1,3.5-1.7,4.7-.6,1.3-2.4,1.3-3.1.1-2-3-2.9-3.4-3.9-3.4s-1.9.4-3.9,3.4c-2.5,4.2-5.6,4.4-5.6,4.4h82.3s-3.1-.2-5.6-5.4Z"/>
      </g>
      <path class="cls-3" d="M2,27h1.6l2.3,10.6h.4l2.3-10.6h2.5l2.3,10.6h.4l2.3-10.6h1.6l-2.7,12.1h-2.8l-2.2-10.6h-.4l-2.2,10.6h-2.8l-2.7-12.1Z"/>
      <path class="cls-3" d="M22.7,27h4.8l3.1,12.1h-1.5l-1-3.5h-6l-1,3.5h-1.5l3.1-12.1ZM27.8,34.1l-1.5-5.6h-2.4l-1.5,5.6h5.3Z"/>
      <path class="cls-3" d="M32.4,27h1.6l2.8,10.6h2.1l2.8-10.6h1.6l-3.2,12.1h-4.5l-3.2-12.1Z"/>
      <path class="cls-3" d="M46.1,27h8.5v1.5h-6.9v3.8h5.6v1.5h-5.6v3.9h6.9v1.5h-8.5v-12.1Z"/>
      <path class="cls-3" d="M57.8,27h1.6v10.6h6.3v1.5h-7.9v-12.1Z"/>
      <path class="cls-3" d="M70.3,27h4.8l3.1,12.1h-1.5l-1-3.5h-6l-1,3.5h-1.5l3.1-12.1ZM75.4,34.1l-1.5-5.6h-2.4l-1.5,5.6h5.3Z"/>
      <path class="cls-3" d="M81,27h5.8c.5,0,1,0,1.5.3.4.2.8.4,1.1.7.3.3.5.6.7,1,.2.4.3.8.3,1.2s0,.9-.3,1.3c-.2.3-.4.6-.6.8-.3.2-.6.4-.9.5h0c.4.2.8.3,1.1.6.3.2.5.5.8.9.2.4.4.9.4,1.5s0,1-.3,1.4c-.2.4-.4.8-.8,1.1-.3.3-.8.6-1.3.7-.5.2-1.1.3-1.8.3h-5.7v-12.1ZM86.8,37.7c.9,0,1.5-.2,1.9-.6.4-.4.6-.8.6-1.4s-.2-1.1-.6-1.5c-.4-.4-1.1-.6-1.9-.6h-4.2v4.1h4.2ZM86.8,32.1c.7,0,1.2-.2,1.5-.5.4-.3.5-.8.5-1.3s-.2-.9-.5-1.3c-.4-.3-.9-.5-1.5-.5h-4.2v3.6h4.2Z"/>
      <g class="cls-2">
        <path class="cls-3" d="M12.5,48c1.9,3.6,2.8,4,3.8,4s1.8-.5,3.8-4h0c.6-1.4,2.6-1.3,3.2,0,.6,1.7,1.2,3.9,1.8,6.7,1.9,8.2,2.8,9.3,3.8,9.3s1.8-1.1,3.8-9.3c.8-4,1.7-6.7,2.5-8.5.6-1.2,2.3-1.3,3-.1h0c1.6,2.4,2.3,2.7,3.1,2.7s1.5-.3,3.1-2.7c0,0,0,0,0,0,.5-.9,1.8-.8,2.3,0,.5.7.9,1.7,1.3,2.8,1.9,4.3,2.8,4.8,3.8,4.8s1.8-.5,3.8-4.8h0c.9-2.3,4.1-2.3,5,0,.3.8.6,1.7.8,2.7,1.9,6.1,2.8,6.8,3.8,6.8s1.8-.8,3.8-6.8c.5-1.9,1.1-3.3,1.6-4.5.6-1.2,2.3-1.3,3,0,1.9,2.9,2.8,3.3,3.8,3.3s1.8-.4,3.8-3.3c2.4-4.1,5.4-4.2,5.4-4.2H7.1s3,.2,5.4,5.2Z"/>
      </g>
    </g>
  </g>
</svg>